<svg xmlns="http://www.w3.org/2000/svg" xmlns:xlink="http://www.w3.org/1999/xlink" viewBox="0 0 256.45 81.77"><defs><style>.a{fill:none;}.b{clip-path:url(#a);}.c{fill:#fff;}.d{fill:#14e067;}</style><clipPath id="a" transform="translate(-28.69 -28.51)"><rect class="a" width="313.84" height="138.78"/></clipPath></defs><title>ea-logo-screen-inverted</title><g class="b"><path class="c" d="M217.49,55.93h7v27h-7Zm3.4-11.82a4.38,4.38,0,0,0-4.3,4.32,4.33,4.33,0,0,0,8.65,0,4.39,4.39,0,0,0-4.35-4.32M56.79,69.43a17.22,17.22,0,0,1-.27,2.86H36c.93,3.4,2.94,5.08,7.13,5.08a7.39,7.39,0,0,0,5.38-1.93h7.71a12,12,0,0,1-1.36,2.47c-2.71,3.88-6.62,5.78-11.84,5.78-9,0-14.36-6-14.36-14.26S34.62,55.18,43,55.18c8,0,13.75,6.15,13.75,14.25m-7-2.54A6.55,6.55,0,0,0,43,61.44c-3.8,0-6.3,2-7.12,5.45Zm21.84,7.65L65,55.65H57.33l10.32,27h8L86,55.65H78.25Zm42.85-5.11a18.36,18.36,0,0,1-.27,2.86H93.71c.92,3.4,2.94,5.08,7.12,5.08a7.43,7.43,0,0,0,5.39-1.93h7.7a11.55,11.55,0,0,1-1.35,2.47c-2.72,3.88-6.63,5.78-11.85,5.78-9,0-14.35-6-14.35-14.26s5.92-14.25,14.35-14.25c8,0,13.75,6.15,13.75,14.25m-7-2.54a6.57,6.57,0,0,0-6.74-5.45c-3.81,0-6.31,2-7.12,5.45ZM190.79,75a8,8,0,1,1-.08-11.27l4.64-4.63a14.51,14.51,0,1,0,.05,20.56l-2-2Zm51.38-.21-6.58-18.9h-7.72l10.33,27h8l10.32-27H248.8ZM133.88,55.39a7.6,7.6,0,0,0-7.68,5.19V55.93h-7v27h7V70c0-3.77,1.67-5.93,4.46-6.64A20.62,20.62,0,0,1,133.93,57a18,18,0,0,1,1.24-1.5,6.5,6.5,0,0,0-1.29-.07m151,16.9H264.38c.93,3.4,2.94,5.08,7.13,5.08a7.43,7.43,0,0,0,5.38-1.93h7.71a12,12,0,0,1-1.35,2.47c-2.72,3.88-6.63,5.78-11.85,5.78-9,0-14.35-6-14.35-14.26S263,55.18,271.39,55.18c8,0,13.75,6.15,13.75,14.25a18.36,18.36,0,0,1-.27,2.86m-6.74-5.4a6.55,6.55,0,0,0-6.74-5.45c-3.8,0-6.3,2-7.12,5.45Zm-117-7.74,4.33-4.45V84.09l-4.33-4.43a14.5,14.5,0,1,1,0-20.51m-2.3,10.26a8,8,0,1,0-8,8,8,8,0,0,0,8-8M205.93,49l-7,7V73.86c0,7.45,3.48,10.15,13.15,9.07V76.61a23.46,23.46,0,0,1-3.37,0c-1.79-.11-2.77-.86-2.77-2.75V62.63h6.14v-6.7h-6.14Z" transform="translate(-28.69 -28.51)"/></g><path class="d" d="M175.28,45.23A34,34,0,0,0,164.45,38l-.33-.14-.06,0-.26-.1a34.57,34.57,0,0,0-25.69,0l-.64.27a34.17,34.17,0,0,0-10.85,7.28l-4.77-4.75a40.92,40.92,0,0,1,13-8.7l.3-.13.13,0,.34-.14a41.42,41.42,0,0,1,30.73,0l.31.12.08,0,.4.16a40.71,40.71,0,0,1,12.94,8.69ZM170.52,50a27.84,27.84,0,0,0-39.14,0l4.78,4.75a21,21,0,0,1,29.59,0Zm-4.2,57.38.35-.15.05,0,.37-.15a40.92,40.92,0,0,0,13-8.7l-4.78-4.75a34.3,34.3,0,0,1-10.84,7.28l-.32.13h0l-.3.12a34.65,34.65,0,0,1-25.67,0l-.34-.14-.31-.13a34,34,0,0,1-10.84-7.28l-4.78,4.75a40.87,40.87,0,0,0,13,8.7l.28.11.11,0,.39.16a41.46,41.46,0,0,0,30.72,0m4.2-18.49-4.77-4.75a21,21,0,0,1-29.59,0l-4.78,4.75a27.84,27.84,0,0,0,39.14,0" transform="translate(-28.69 -28.51)"/></svg>